<svg width="285" height="345" viewBox="0 0 285 345" fill="none" xmlns="http://www.w3.org/2000/svg">
<rect x="17.7896" y="42.2654" width="179.226" height="179.226" rx="83.291" transform="rotate(-11.7427 17.7896 42.2654)" fill="#F7A950" stroke="#2B2E43" stroke-width="8.49392"/>
<rect x="87.4417" y="113.852" width="22.3708" height="22.3708" rx="10.432" transform="rotate(-11.7427 87.4417 113.852)" fill="#2B2E43"/>
<path d="M155.051 105.402L158.1 102.445L152.186 96.3476L149.137 99.3045L155.051 105.402ZM139.664 114.41L136.707 111.362L138.333 118.443L139.664 114.41ZM149.137 99.3045L136.707 111.362L142.621 117.459L155.051 105.402L149.137 99.3045ZM138.333 118.443L158.591 125.127L161.252 117.06L140.994 110.377L138.333 118.443Z" fill="#2B2E43"/>
<path d="M144.526 132.782C145.447 137.214 144.271 141.051 141.899 144.042C138.98 147.723 134.249 150.123 129.391 150.776C121.868 151.787 114.039 148.609 112.148 139.513" stroke="#2B2E43" stroke-width="8.49392"/>
<path d="M145.585 159.385C158.484 149.75 139.679 140.529 139.679 140.529C136.76 144.211 132.029 146.611 127.171 147.264C127.171 147.264 132.686 169.02 145.585 159.385Z" fill="#EA3546"/>
<path d="M13.6576 229.514L13.1755 226.553L13.6576 229.514L23.489 227.914L31.8117 233.386L33.4599 230.88L31.8117 233.386C34.8773 235.402 39.0007 233.57 39.559 229.943L41.0748 220.099L48.8515 213.874C51.7161 211.582 51.2476 207.094 47.9712 205.442L39.0767 200.959L35.5603 191.639C34.265 188.206 29.8521 187.265 27.2689 189.871L29.3993 191.983L27.2689 189.871L20.256 196.944L10.306 197.409C6.6409 197.58 4.38209 201.486 6.06188 204.748L10.6222 213.603L7.98923 223.21C7.01936 226.749 10.0362 230.104 13.6576 229.514ZM40.7822 220.333L40.7834 220.332L40.7822 220.333Z" fill="#F7A950" stroke="#2B2E43" stroke-width="6"/>
<path d="M278.099 182.39C279.288 179.782 277.96 177.172 275.92 176.128L274.899 175.605C266.226 171.164 255.076 177.678 248.419 192.282L246.279 196.977C243.902 202.192 244.313 208.193 247.716 213.152C243.333 218.627 239.732 225.146 239.732 225.146L230.222 246.009C228.32 250.182 230.227 255.661 234.308 257.751C238.39 259.841 243.626 258.019 245.528 253.846L255.038 232.983C255.989 230.897 257.856 225.42 258.975 220.203C260.471 219.682 261.457 218.9 262.17 217.336L278.099 182.39ZM250.41 163.066L249.39 162.544L241.068 180.799C240.355 182.364 238.859 182.884 237.329 182.101C235.798 181.317 235.253 179.751 235.966 178.187L243.099 162.539C243.812 160.974 243.267 159.409 241.737 158.625C240.206 157.841 238.71 158.362 237.997 159.927L230.864 175.574C230.151 177.139 228.655 177.66 227.125 176.876C225.594 176.092 225.049 174.527 225.763 172.962L234.084 154.707L233.063 154.184C231.023 153.139 228.031 154.181 227.08 156.267L218.283 175.565C215.906 180.781 216.827 187.043 220.468 191.48C214.623 198.78 209.12 209.472 209.12 209.472L199.61 230.335C197.708 234.508 199.615 239.988 203.697 242.078C207.778 244.167 213.014 242.345 214.916 238.172L224.426 217.309C225.615 214.701 229.384 205.052 231.182 196.966C236.214 196.969 241.415 193.843 243.793 188.627L252.59 169.329C253.541 167.242 252.451 164.111 250.41 163.066Z" fill="#838AAF"/>
<path fill-rule="evenodd" clip-rule="evenodd" d="M239.732 225.146C239.732 225.146 243.333 218.627 247.716 213.152C244.313 208.193 243.902 202.192 246.279 196.977L248.419 192.282C248.616 191.851 248.816 191.427 249.021 191.01C249.593 189.841 250.194 188.729 250.821 187.674C257.548 176.354 267.2 171.663 274.899 175.605L275.92 176.128C277.96 177.172 279.288 179.782 278.099 182.39L262.17 217.336C261.457 218.9 260.471 219.682 258.975 220.203C257.856 225.42 255.989 230.897 255.038 232.983L245.528 253.846C243.626 258.019 238.39 259.841 234.308 257.751C230.227 255.661 228.32 250.182 230.222 246.009L239.732 225.146ZM264.207 224.17C263.029 228.832 261.475 233.326 260.497 235.472L250.987 256.335C247.666 263.62 238.701 266.741 231.574 263.092C224.637 259.54 221.53 250.612 224.762 243.521L234.368 222.447L234.48 222.245L239.732 225.146C234.48 222.245 234.48 222.245 234.48 222.244L234.481 222.243L234.486 222.234L234.497 222.213L234.536 222.143C234.569 222.085 234.615 222.003 234.674 221.898C234.793 221.689 234.963 221.392 235.179 221.021C235.611 220.279 236.231 219.238 236.994 218.019C237.969 216.461 239.203 214.571 240.599 212.623C239.034 208.997 238.484 205.114 238.918 201.311C237.978 201.725 237.01 202.065 236.025 202.327C233.975 209.803 230.994 217.365 229.885 219.798L220.375 240.661C217.055 247.946 208.089 251.067 200.962 247.418C194.025 243.866 190.918 234.938 194.151 227.847L203.72 206.854L203.785 206.727L209.12 209.472L199.61 230.335C197.708 234.508 199.615 239.988 203.697 242.078C207.778 244.167 213.014 242.345 214.916 238.172L224.426 217.309C225.615 214.701 229.384 205.052 231.182 196.966C235.378 196.969 239.691 194.795 242.387 191.049C242.657 190.675 242.91 190.284 243.146 189.879C243.38 189.476 243.596 189.059 243.793 188.627L252.59 169.329C253.541 167.242 252.451 164.111 250.41 163.066L249.39 162.544L241.068 180.799C240.862 181.252 240.59 181.617 240.27 181.889C239.486 182.556 238.416 182.657 237.329 182.101C236.152 181.498 235.558 180.433 235.67 179.262C235.696 178.988 235.761 178.709 235.866 178.428C235.896 178.347 235.93 178.267 235.966 178.187L243.099 162.539C243.136 162.459 243.169 162.378 243.199 162.298C243.338 161.926 243.407 161.556 243.409 161.199C243.414 160.133 242.824 159.182 241.737 158.625C240.649 158.068 239.579 158.17 238.795 158.837C238.476 159.108 238.203 159.474 237.997 159.927L230.864 175.574C230.828 175.655 230.789 175.733 230.748 175.808C230.581 176.115 230.38 176.376 230.154 176.587C229.363 177.323 228.253 177.454 227.125 176.876C226.037 176.319 225.447 175.368 225.453 174.302C225.455 173.945 225.523 173.575 225.663 173.203C225.693 173.123 225.726 173.042 225.763 172.962L234.084 154.707L233.063 154.184C232.828 154.064 232.58 153.971 232.323 153.904C230.359 153.394 227.921 154.422 227.08 156.267L218.283 175.565C215.906 180.781 216.827 187.043 220.468 191.48C214.623 198.78 209.12 209.472 209.12 209.472C203.785 206.727 203.785 206.726 203.786 206.726L203.808 206.683L203.862 206.578C203.909 206.489 203.976 206.361 204.062 206.197C204.235 205.871 204.484 205.403 204.8 204.821C205.433 203.659 206.336 202.035 207.429 200.175C208.989 197.518 210.993 194.281 213.189 191.185C210.443 185.61 210.155 178.93 212.824 173.077L221.62 153.778C222.914 150.939 225.369 149.193 227.691 148.385C230.012 147.577 233.021 147.422 235.798 148.844L241.921 151.979L241.739 152.379C242.712 152.538 243.635 152.857 244.471 153.285C245.165 153.64 245.821 154.081 246.415 154.603L246.535 154.341L253.144 157.725C255.878 159.125 257.513 161.606 258.288 163.835C259.026 165.956 259.297 168.74 258.222 171.413C264.198 167.898 271.203 166.972 277.634 170.264L278.654 170.787C283.133 173.08 286.264 178.943 283.559 184.879L267.63 219.824C266.984 221.24 266.087 222.568 264.812 223.681C264.613 223.855 264.411 224.018 264.207 224.17Z" fill="#2B2E43"/>
<path d="M172.906 269.648C171.141 263.95 165.227 260.66 159.563 262.568L91.2993 285.561C85.6413 287.466 82.6824 293.738 84.4493 299.443L87.3744 308.887C90.0109 317.399 93.9707 323.768 99.2406 327.403C103.984 330.674 109.534 331.554 115.521 330.114L116.188 332.266C116.915 334.615 118.508 336.585 120.642 337.73C122.78 338.877 125.289 339.1 127.613 338.318L159.705 327.508C162.028 326.726 163.938 325.014 165.028 322.779C166.117 320.549 166.304 317.979 165.576 315.631L164.915 313.497C170.798 311.026 174.964 307.189 176.98 301.677C179.194 295.624 178.611 288.067 175.831 279.092L172.906 269.648Z" fill="#EA3546" stroke="#2B2E43" stroke-width="5"/>
<path d="M155.958 256.058L158.335 255.286L157.563 252.908L155.07 245.235C153.204 239.493 147.857 235.858 142.125 235.904C138.793 231.24 132.71 229.05 126.967 230.916C126.173 231.174 125.417 231.5 124.706 231.885C120.744 228.843 115.396 227.736 110.28 229.398C105.163 231.06 101.487 235.1 100.07 239.889C99.2684 239.996 98.4658 240.177 97.6714 240.435C91.9287 242.301 88.2945 247.648 88.3397 253.38C83.6758 256.712 81.4865 262.795 83.3524 268.538C83.4764 268.919 84.069 270.681 84.6731 272.42C84.9758 273.291 85.2861 274.171 85.5453 274.877C85.6744 275.229 85.7956 275.551 85.8995 275.813C85.9792 276.014 86.1121 276.346 86.256 276.6L87.2614 278.379L89.2049 277.748L155.958 256.058Z" fill="#F7A950" stroke="#2B2E43" stroke-width="5"/>
<rect x="98.4139" y="261.707" width="4.40051" height="4.40051" rx="2.0169" transform="rotate(-47.8758 98.4139 261.707)" fill="#952C1E"/>
<rect x="106.389" y="251.413" width="8.80102" height="4.40051" rx="1.10013" transform="rotate(8.52387 106.389 251.413)" fill="#EA3546"/>
<rect x="105.963" y="244.594" width="8.80102" height="4.40051" rx="1.10013" transform="rotate(-47.8758 105.963 244.594)" fill="#952C1E"/>
<rect x="135.638" y="248.11" width="8.80102" height="4.40051" rx="1.10013" transform="rotate(-27.7881 135.638 248.11)" fill="#952C1E"/>
<rect x="95.9384" y="251.715" width="4.40051" height="4.40051" rx="1.46684" transform="rotate(-47.8758 95.9384 251.715)" fill="#F05A2B"/>
<rect x="117.055" y="250.252" width="4.40051" height="4.40051" rx="0.550064" transform="rotate(-47.8758 117.055 250.252)" fill="#00A878"/>
<rect x="127.92" y="250.059" width="4.40051" height="4.40051" rx="1.46684" fill="#F05A2B"/>
<rect x="126.403" y="241.046" width="4.40051" height="4.40051" rx="0.880102" transform="rotate(-47.8758 126.403 241.046)" fill="#952C1E"/>
<path d="M118.647 241.471L118.437 238.392C118.421 238.162 118.513 237.933 118.7 237.798C120.383 236.581 122.116 237.305 122.432 239.357C122.468 239.585 122.37 239.811 122.195 239.962L119.857 241.977C119.399 242.372 118.688 242.074 118.647 241.471Z" fill="#EA3546"/>
<path d="M94.8257 264.649L91.7395 264.677C91.5087 264.679 91.286 264.574 91.162 264.379C90.0462 262.628 90.8709 260.94 92.9381 260.745C93.168 260.723 93.3877 260.834 93.5279 261.018L95.4019 263.47C95.7688 263.95 95.4301 264.643 94.8257 264.649Z" fill="#00A878"/>
</svg>
