<svg width="269" height="337" viewBox="0 0 269 337" fill="none" xmlns="http://www.w3.org/2000/svg">
<path d="M199.046 152.417C202.106 141.522 196.07 130.235 185.147 127.454L47.2337 92.342C36.3217 89.5639 25.1661 96.4612 22.1027 107.368L16.8208 126.172C12.0899 143.015 11.8645 157.606 16.6021 169.038C20.9505 179.531 29.2818 186.883 40.9607 190.78L39.5296 195.875C38.2783 200.33 38.7831 205.066 40.9797 209.048C43.1798 213.035 46.902 215.939 51.3511 217.072L116.186 233.579C120.635 234.711 125.383 233.964 129.38 231.554C133.371 229.148 136.292 225.284 137.543 220.829L138.967 215.76C151.533 218.177 162.567 216.367 171.77 209.429C181.697 201.945 188.766 189.017 193.764 171.221L199.046 152.417Z" fill="#3F51B5" stroke="#2B2E43" stroke-width="8.05677"/>
<path d="M186.535 111.132L190.426 112.174L191.469 108.283L195.594 92.8872C198.619 81.5969 193.657 70.0553 184.174 64.2478C183.886 53.1311 176.372 43.0629 165.081 40.0377C163.343 39.5719 161.596 39.2954 159.862 39.1962C156.782 29.9089 149.235 22.2907 139.064 19.5655C128.894 16.8402 118.549 19.6644 111.238 26.1674C109.687 25.3865 108.035 24.7523 106.297 24.2865C95.0068 21.2613 83.4652 26.2235 77.6577 35.707C66.5411 35.9947 56.4728 43.5089 53.4476 54.7991C53.2448 55.5561 52.3331 59.1055 51.4633 62.6348C51.0277 64.4023 50.597 66.1874 50.2679 67.6296C50.1039 68.3485 49.9602 69.0035 49.8527 69.5382C49.7661 69.9693 49.6436 70.5993 49.6126 71.1025L49.4102 74.3891L52.5908 75.2413L186.535 111.132Z" fill="#F7A950" stroke="#2B2E43" stroke-width="8.05677"/>
<rect x="84.8735" y="59.4525" width="8.694" height="8.694" rx="3.98475" transform="rotate(-14.8758 84.8735 59.4525)" fill="#952C1E"/>
<rect x="109.165" y="50.9771" width="17.388" height="8.694" rx="2.1735" transform="rotate(41.5239 109.165 50.9771)" fill="#EA3546"/>
<rect x="115.797" y="39.2192" width="17.388" height="8.694" rx="2.1735" transform="rotate(-14.8758 115.797 39.2192)" fill="#952C1E"/>
<rect x="161.184" y="76.9766" width="17.388" height="8.694" rx="2.1735" transform="rotate(5.21194 161.184 76.9766)" fill="#952C1E"/>
<rect x="91.5235" y="40.2328" width="8.694" height="8.694" rx="2.898" transform="rotate(-14.8758 91.5235 40.2328)" fill="#F05A2B"/>
<rect x="128.088" y="60.5309" width="8.694" height="8.694" rx="1.08675" transform="rotate(-14.8758 128.088 60.5309)" fill="#00A878"/>
<rect x="146.297" y="71.9007" width="8.694" height="8.694" rx="2.898" transform="rotate(33 146.297 71.9007)" fill="#F05A2B"/>
<rect x="153.482" y="55.3344" width="8.694" height="8.694" rx="1.7388" transform="rotate(-14.8758 153.482 55.3344)" fill="#952C1E"/>
<path d="M140.172 47.6937L143.139 42.3661C143.36 41.9676 143.759 41.688 144.214 41.6651C148.311 41.459 150.404 44.5231 148.72 48.2642C148.533 48.6801 148.128 48.9491 147.676 49.0107L141.634 49.8343C140.451 49.9956 139.592 48.7369 140.172 47.6937Z" fill="#EA3546"/>
<path d="M75.763 60.4655L70.6194 57.1907C70.2346 56.9458 69.9789 56.5319 69.9829 56.0759C70.0184 51.9737 73.2005 50.0654 76.836 51.9661C77.2401 52.1774 77.4848 52.5978 77.5196 53.0526L77.986 59.1324C78.0773 60.323 76.7702 61.1068 75.763 60.4655Z" fill="#00A878"/>
<path d="M262.534 308.88C264.684 305.748 265.537 301.886 264.951 298.142L257.321 249.384C256.735 245.64 254.749 242.265 251.757 240.015C248.759 237.76 244.991 236.821 241.281 237.457L168.812 249.88C165.102 250.516 161.818 252.664 159.664 255.802C157.514 258.933 156.661 262.795 157.246 266.539L164.877 315.297C165.463 319.041 167.449 322.417 170.441 324.667C173.439 326.921 177.207 327.86 180.916 327.224L253.386 314.801C257.096 314.165 260.38 312.017 262.534 308.88Z" fill="#00A878" stroke="#2B2E43" stroke-width="7"/>
<path d="M249.218 275.806L215.815 312.473L172.98 288.875L206.383 252.205L249.218 275.806Z" fill="#F7A950"/>
<path d="M213.742 299.639C222.973 298.057 229.231 288.942 227.719 279.28C226.207 269.619 217.498 263.07 208.267 264.652C199.036 266.235 192.778 275.35 194.29 285.011C195.802 294.672 204.511 301.221 213.742 299.639Z" fill="#002776"/>
<path d="M194.967 276.447C194.367 278.308 194.069 280.261 194.085 282.226C204.302 279.667 219.26 283.17 226.429 289.462C227.213 287.647 227.698 285.684 227.865 283.642C219.241 277.31 205.411 274.613 194.967 276.447Z" fill="#EFEFEF"/>
<path d="M195.669 285.634L198.257 285.19L198.681 287.899L196.093 288.343L195.669 285.634ZM199.105 290.608L201.693 290.164L202.117 292.873L199.529 293.317L199.105 290.608Z" fill="#88C9F9"/>
<path d="M203.433 284.303L206.021 283.859L206.445 286.568L203.857 287.012L203.433 284.303ZM209.033 286.124L211.622 285.681L212.046 288.389L209.457 288.833L209.033 286.124ZM220.234 289.767L222.822 289.324L223.246 292.032L220.658 292.476L220.234 289.767ZM212.893 293.807L215.482 293.363L215.906 296.072L213.317 296.516L212.893 293.807ZM218.114 276.223L220.703 275.78L221.127 278.488L218.538 278.932L218.114 276.223Z" fill="#55ACEE"/>
<path d="M214.634 287.946L217.222 287.502L217.646 290.211L215.058 290.655L214.634 287.946Z" fill="#3B88C3"/>
<path d="M72.4621 278.93L72.4615 278.93C68.033 282.122 65.0268 287 64.0621 292.473C63.0972 297.945 64.2428 303.623 67.2912 308.257L67.2915 308.258L80.0475 327.646L80.0477 327.646C81.8318 330.357 84.5986 332.251 87.7577 332.861C90.9168 333.471 94.1471 332.736 96.7383 330.869L96.7387 330.869L115.266 317.519L115.277 317.511C119.461 314.473 122.372 309.921 123.469 304.775C124.565 299.629 123.777 294.219 121.228 289.616L118.259 291.247L121.228 289.616C118.676 285.008 114.539 281.537 109.612 279.937C105.49 278.598 101.102 278.663 97.0728 280.066C93.9944 277.41 90.2107 275.733 86.1805 275.289C81.3113 274.754 76.4473 276.06 72.4621 278.93Z" fill="#EA3546" stroke="#2B2E43" stroke-width="7"/>
</svg>
